<svg xmlns="http://www.w3.org/2000/svg" width="19.246" height="21.634" viewBox="0 0 19.246 21.634">
  <g id="noun-delete-6492948" transform="translate(-23.92 -19.19)">
    <g id="Raggruppa_531" data-name="Raggruppa 531" transform="translate(23.92 19.19)">
      <path id="Tracciato_1219" data-name="Tracciato 1219" d="M42.428,22.459H37.764V21.1a1.91,1.91,0,0,0-1.908-1.908H31.23A1.91,1.91,0,0,0,29.322,21.1v1.362H24.658a.738.738,0,1,0,0,1.476h1.391v12.7a4.19,4.19,0,0,0,4.184,4.184h6.62a4.19,4.19,0,0,0,4.184-4.184v-12.7h1.391a.738.738,0,0,0,0-1.476Zm-2.867,14.18a2.71,2.71,0,0,1-2.708,2.708h-6.62a2.71,2.71,0,0,1-2.708-2.708V23.983H39.561ZM30.8,21.1a.432.432,0,0,1,.432-.432h4.627a.432.432,0,0,1,.432.432v1.362H30.8Z" transform="translate(-23.92 -19.19)" fill="#c9361b"/>
      <path id="Tracciato_1220" data-name="Tracciato 1220" d="M42.738,50.049a.74.74,0,0,0,.738-.738V41.928a.738.738,0,0,0-1.476,0v7.383A.74.74,0,0,0,42.738,50.049Z" transform="translate(-35.329 -33.072)" fill="#c9361b"/>
      <path id="Tracciato_1221" data-name="Tracciato 1221" d="M54.738,50.049a.74.74,0,0,0,.738-.738V41.928a.738.738,0,0,0-1.476,0v7.383A.74.74,0,0,0,54.738,50.049Z" transform="translate(-42.901 -33.072)" fill="#c9361b"/>
    </g>
  </g>
</svg>
