<svg xmlns="http://www.w3.org/2000/svg" width="47.425" height="47.425" viewBox="0 0 47.425 47.425">
  <g id="Icon_feather-image" data-name="Icon feather-image" transform="translate(-4 -4)">
    <path id="Tracciato_12" data-name="Tracciato 12" d="M9.636,4.5H45.587a5.136,5.136,0,0,1,5.136,5.136V45.587a5.136,5.136,0,0,1-5.136,5.136H9.636A5.136,5.136,0,0,1,4.5,45.587V9.636A5.136,5.136,0,0,1,9.636,4.5Z" fill="none" stroke="#afafaf" stroke-linecap="round" stroke-linejoin="round" stroke-width="1"/>
    <path id="Tracciato_13" data-name="Tracciato 13" d="M16.66,13.58a3.08,3.08,0,1,1-3.08-3.08A3.08,3.08,0,0,1,16.66,13.58Z" transform="translate(4.684 4.684)" fill="none" stroke="#afafaf" stroke-linecap="round" stroke-linejoin="round" stroke-width="1"/>
    <path id="Tracciato_14" data-name="Tracciato 14" d="M49.617,25.266,36.455,15,7.5,37.586" transform="translate(1.107 13.137)" fill="none" stroke="#afafaf" stroke-linecap="round" stroke-linejoin="round" stroke-width="1"/>
  </g>
</svg>
